<svg xmlns="http://www.w3.org/2000/svg" xmlns:xlink="http://www.w3.org/1999/xlink" width="500" zoomAndPan="magnify" viewBox="0 0 375 374.999991" height="500" preserveAspectRatio="xMidYMid meet" version="1.0"><defs><g/></defs><g fill="#432d70" fill-opacity="1"><g transform="translate(41.364308, 172.810008)"><g><path d="M 23.890625 0 L 23.890625 -74.265625 L 44.75 -74.265625 L 44.75 0 Z M 1.671875 -56.53125 L 1.671875 -74.265625 L 67.078125 -74.265625 L 67.078125 -56.53125 Z M 1.671875 -56.53125 "/></g></g></g><g fill="#432d70" fill-opacity="1"><g transform="translate(107.789857, 172.810008)"><g><path d="M 4.90625 0 L 4.90625 -51.328125 L 25.34375 -51.328125 L 25.34375 0 Z M 25.34375 -27.75 L 15.859375 -36.203125 C 18.492188 -41.765625 21.566406 -45.847656 25.078125 -48.453125 C 28.597656 -51.054688 33 -52.359375 38.28125 -52.359375 C 40.644531 -52.359375 42.675781 -52.082031 44.375 -51.53125 C 46.082031 -50.976562 47.457031 -50.175781 48.5 -49.125 L 37.03125 -32.859375 C 36.539062 -33.410156 35.828125 -33.878906 34.890625 -34.265625 C 33.953125 -34.648438 32.859375 -34.84375 31.609375 -34.84375 C 29.523438 -34.84375 27.957031 -34.234375 26.90625 -33.015625 C 25.863281 -31.796875 25.34375 -30.039062 25.34375 -27.75 Z M 25.34375 -27.75 "/></g></g></g><g fill="#432d70" fill-opacity="1"><g transform="translate(153.672217, 172.810008)"><g><path d="M 26.28125 1.046875 C 21.488281 1.046875 17.25 -0.0976562 13.5625 -2.390625 C 9.875 -4.691406 6.984375 -7.84375 4.890625 -11.84375 C 2.804688 -15.84375 1.765625 -20.445312 1.765625 -25.65625 C 1.765625 -30.875 2.804688 -35.5 4.890625 -39.53125 C 6.984375 -43.5625 9.875 -46.707031 13.5625 -48.96875 C 17.25 -51.226562 21.488281 -52.359375 26.28125 -52.359375 C 29.269531 -52.359375 32.035156 -51.851562 34.578125 -50.84375 C 37.117188 -49.84375 39.238281 -48.4375 40.9375 -46.625 C 42.644531 -44.820312 43.742188 -42.738281 44.234375 -40.375 L 44.234375 -10.953125 C 43.742188 -8.585938 42.644531 -6.5 40.9375 -4.6875 C 39.238281 -2.882812 37.117188 -1.476562 34.578125 -0.46875 C 32.035156 0.539062 29.269531 1.046875 26.28125 1.046875 Z M 30.875 -16.90625 C 33.445312 -16.90625 35.515625 -17.71875 37.078125 -19.34375 C 38.648438 -20.976562 39.4375 -23.082031 39.4375 -25.65625 C 39.4375 -27.394531 39.085938 -28.90625 38.390625 -30.1875 C 37.691406 -31.476562 36.695312 -32.503906 35.40625 -33.265625 C 34.125 -34.035156 32.648438 -34.421875 30.984375 -34.421875 C 29.316406 -34.421875 27.835938 -34.035156 26.546875 -33.265625 C 25.265625 -32.503906 24.238281 -31.460938 23.46875 -30.140625 C 22.707031 -28.828125 22.328125 -27.332031 22.328125 -25.65625 C 22.328125 -23.988281 22.691406 -22.492188 23.421875 -21.171875 C 24.148438 -19.847656 25.175781 -18.804688 26.5 -18.046875 C 27.820312 -17.285156 29.28125 -16.90625 30.875 -16.90625 Z M 38.796875 0 L 38.796875 -13.765625 L 41.625 -26.28125 L 38.796875 -38.703125 L 38.796875 -51.328125 L 58.734375 -51.328125 L 58.734375 0 Z M 38.796875 0 "/></g></g></g><g fill="#432d70" fill-opacity="1"><g transform="translate(214.988043, 172.810008)"><g><path d="M 19.921875 0 L -0.3125 -51.328125 L 21.390625 -51.328125 L 33.28125 -7.609375 L 24.3125 -7.609375 L 35.984375 -51.328125 L 57.578125 -51.328125 L 37.453125 -0.109375 Z M 8.765625 21.90625 L 23.671875 -11.78125 L 37.453125 -0.109375 L 28.796875 21.90625 Z M 8.765625 21.90625 "/></g></g></g><g fill="#432d70" fill-opacity="1"><g transform="translate(269.942784, 172.810008)"><g><path d="M 26.28125 1.046875 C 21.488281 1.046875 17.25 -0.0976562 13.5625 -2.390625 C 9.875 -4.691406 6.984375 -7.84375 4.890625 -11.84375 C 2.804688 -15.84375 1.765625 -20.445312 1.765625 -25.65625 C 1.765625 -30.875 2.804688 -35.5 4.890625 -39.53125 C 6.984375 -43.5625 9.875 -46.707031 13.5625 -48.96875 C 17.25 -51.226562 21.488281 -52.359375 26.28125 -52.359375 C 29.269531 -52.359375 32.035156 -51.851562 34.578125 -50.84375 C 37.117188 -49.84375 39.238281 -48.4375 40.9375 -46.625 C 42.644531 -44.820312 43.742188 -42.738281 44.234375 -40.375 L 44.234375 -10.953125 C 43.742188 -8.585938 42.644531 -6.5 40.9375 -4.6875 C 39.238281 -2.882812 37.117188 -1.476562 34.578125 -0.46875 C 32.035156 0.539062 29.269531 1.046875 26.28125 1.046875 Z M 30.875 -16.90625 C 33.445312 -16.90625 35.515625 -17.71875 37.078125 -19.34375 C 38.648438 -20.976562 39.4375 -23.082031 39.4375 -25.65625 C 39.4375 -27.394531 39.085938 -28.90625 38.390625 -30.1875 C 37.691406 -31.476562 36.695312 -32.503906 35.40625 -33.265625 C 34.125 -34.035156 32.648438 -34.421875 30.984375 -34.421875 C 29.316406 -34.421875 27.835938 -34.035156 26.546875 -33.265625 C 25.265625 -32.503906 24.238281 -31.460938 23.46875 -30.140625 C 22.707031 -28.828125 22.328125 -27.332031 22.328125 -25.65625 C 22.328125 -23.988281 22.691406 -22.492188 23.421875 -21.171875 C 24.148438 -19.847656 25.175781 -18.804688 26.5 -18.046875 C 27.820312 -17.285156 29.28125 -16.90625 30.875 -16.90625 Z M 38.796875 0 L 38.796875 -13.765625 L 41.625 -26.28125 L 38.796875 -38.703125 L 38.796875 -51.328125 L 58.734375 -51.328125 L 58.734375 0 Z M 38.796875 0 "/></g></g></g><g fill="#432d70" fill-opacity="1"><g transform="translate(69.544215, 265.297908)"><g><path d="M 42.875 1.25 C 37.164062 1.25 31.859375 0.296875 26.953125 -1.609375 C 22.054688 -3.523438 17.765625 -6.222656 14.078125 -9.703125 C 10.390625 -13.179688 7.519531 -17.265625 5.46875 -21.953125 C 3.425781 -26.648438 2.40625 -31.742188 2.40625 -37.234375 C 2.40625 -42.796875 3.425781 -47.90625 5.46875 -52.5625 C 7.519531 -57.226562 10.367188 -61.265625 14.015625 -64.671875 C 17.671875 -68.078125 21.929688 -70.734375 26.796875 -72.640625 C 31.671875 -74.554688 36.957031 -75.515625 42.65625 -75.515625 C 48.4375 -75.515625 53.722656 -74.609375 58.515625 -72.796875 C 63.316406 -70.992188 67.488281 -68.492188 71.03125 -65.296875 L 57.15625 -51.328125 C 55.488281 -53.128906 53.457031 -54.550781 51.0625 -55.59375 C 48.664062 -56.632812 45.863281 -57.15625 42.65625 -57.15625 C 39.875 -57.15625 37.316406 -56.703125 34.984375 -55.796875 C 32.660156 -54.898438 30.664062 -53.582031 29 -51.84375 C 27.332031 -50.101562 26.023438 -48 25.078125 -45.53125 C 24.140625 -43.0625 23.671875 -40.296875 23.671875 -37.234375 C 23.671875 -34.109375 24.140625 -31.3125 25.078125 -28.84375 C 26.023438 -26.375 27.332031 -24.269531 29 -22.53125 C 30.664062 -20.789062 32.660156 -19.453125 34.984375 -18.515625 C 37.316406 -17.578125 39.875 -17.109375 42.65625 -17.109375 C 45.789062 -17.109375 48.59375 -17.59375 51.0625 -18.5625 C 53.53125 -19.539062 55.664062 -20.96875 57.46875 -22.84375 L 71.453125 -8.859375 C 67.765625 -5.660156 63.625 -3.175781 59.03125 -1.40625 C 54.445312 0.363281 49.0625 1.25 42.875 1.25 Z M 42.875 1.25 "/></g></g></g><g fill="#432d70" fill-opacity="1"><g transform="translate(139.723869, 265.297908)"><g><path d="M 26.28125 1.046875 C 21.488281 1.046875 17.25 -0.0976562 13.5625 -2.390625 C 9.875 -4.691406 6.984375 -7.84375 4.890625 -11.84375 C 2.804688 -15.84375 1.765625 -20.445312 1.765625 -25.65625 C 1.765625 -30.875 2.804688 -35.5 4.890625 -39.53125 C 6.984375 -43.5625 9.875 -46.707031 13.5625 -48.96875 C 17.25 -51.226562 21.488281 -52.359375 26.28125 -52.359375 C 29.269531 -52.359375 32.035156 -51.851562 34.578125 -50.84375 C 37.117188 -49.84375 39.238281 -48.4375 40.9375 -46.625 C 42.644531 -44.820312 43.742188 -42.738281 44.234375 -40.375 L 44.234375 -10.953125 C 43.742188 -8.585938 42.644531 -6.5 40.9375 -4.6875 C 39.238281 -2.882812 37.117188 -1.476562 34.578125 -0.46875 C 32.035156 0.539062 29.269531 1.046875 26.28125 1.046875 Z M 30.875 -16.90625 C 33.445312 -16.90625 35.515625 -17.71875 37.078125 -19.34375 C 38.648438 -20.976562 39.4375 -23.082031 39.4375 -25.65625 C 39.4375 -27.394531 39.085938 -28.90625 38.390625 -30.1875 C 37.691406 -31.476562 36.695312 -32.503906 35.40625 -33.265625 C 34.125 -34.035156 32.648438 -34.421875 30.984375 -34.421875 C 29.316406 -34.421875 27.835938 -34.035156 26.546875 -33.265625 C 25.265625 -32.503906 24.238281 -31.460938 23.46875 -30.140625 C 22.707031 -28.828125 22.328125 -27.332031 22.328125 -25.65625 C 22.328125 -23.988281 22.691406 -22.492188 23.421875 -21.171875 C 24.148438 -19.847656 25.175781 -18.804688 26.5 -18.046875 C 27.820312 -17.285156 29.28125 -16.90625 30.875 -16.90625 Z M 38.796875 0 L 38.796875 -13.765625 L 41.625 -26.28125 L 38.796875 -38.703125 L 38.796875 -51.328125 L 58.734375 -51.328125 L 58.734375 0 Z M 38.796875 0 "/></g></g></g><g fill="#432d70" fill-opacity="1"><g transform="translate(201.039695, 265.297908)"><g><path d="M 4.90625 0 L 4.90625 -51.328125 L 25.34375 -51.328125 L 25.34375 0 Z M 25.34375 -27.75 L 15.859375 -36.203125 C 18.492188 -41.765625 21.566406 -45.847656 25.078125 -48.453125 C 28.597656 -51.054688 33 -52.359375 38.28125 -52.359375 C 40.644531 -52.359375 42.675781 -52.082031 44.375 -51.53125 C 46.082031 -50.976562 47.457031 -50.175781 48.5 -49.125 L 37.03125 -32.859375 C 36.539062 -33.410156 35.828125 -33.878906 34.890625 -34.265625 C 33.953125 -34.648438 32.859375 -34.84375 31.609375 -34.84375 C 29.523438 -34.84375 27.957031 -34.234375 26.90625 -33.015625 C 25.863281 -31.796875 25.34375 -30.039062 25.34375 -27.75 Z M 25.34375 -27.75 "/></g></g></g><g fill="#432d70" fill-opacity="1"><g transform="translate(246.922054, 265.297908)"><g><path d="M 31.609375 1.25 C 25.628906 1.25 20.378906 0.117188 15.859375 -2.140625 C 11.335938 -4.398438 7.804688 -7.5625 5.265625 -11.625 C 2.722656 -15.695312 1.453125 -20.375 1.453125 -25.65625 C 1.453125 -30.875 2.6875 -35.5 5.15625 -39.53125 C 7.625 -43.5625 11.015625 -46.742188 15.328125 -49.078125 C 19.640625 -51.410156 24.507812 -52.578125 29.9375 -52.578125 C 35.289062 -52.578125 40.019531 -51.476562 44.125 -49.28125 C 48.226562 -47.09375 51.441406 -44.050781 53.765625 -40.15625 C 56.097656 -36.257812 57.265625 -31.8125 57.265625 -26.8125 C 57.265625 -25.769531 57.210938 -24.671875 57.109375 -23.515625 C 57.003906 -22.367188 56.78125 -21.03125 56.4375 -19.5 L 10.125 -19.1875 L 10.125 -31.71875 L 48.8125 -32.03125 L 39.328125 -26.5 C 39.328125 -29.28125 38.992188 -31.554688 38.328125 -33.328125 C 37.671875 -35.097656 36.679688 -36.4375 35.359375 -37.34375 C 34.035156 -38.25 32.367188 -38.703125 30.359375 -38.703125 C 28.265625 -38.703125 26.453125 -38.179688 24.921875 -37.140625 C 23.398438 -36.097656 22.238281 -34.601562 21.4375 -32.65625 C 20.632812 -30.707031 20.234375 -28.34375 20.234375 -25.5625 C 20.234375 -22.707031 20.664062 -20.320312 21.53125 -18.40625 C 22.40625 -16.5 23.675781 -15.054688 25.34375 -14.078125 C 27.007812 -13.109375 29.097656 -12.625 31.609375 -12.625 C 34.035156 -12.625 36.171875 -13.019531 38.015625 -13.8125 C 39.859375 -14.613281 41.546875 -15.882812 43.078125 -17.625 L 53.296875 -7.515625 C 50.722656 -4.585938 47.628906 -2.394531 44.015625 -0.9375 C 40.398438 0.519531 36.265625 1.25 31.609375 1.25 Z M 31.609375 1.25 "/></g></g></g><g fill="#6c645f" fill-opacity="1"><g transform="translate(72.871338, 293.456218)"><g><path d="M 7.9375 0.296875 C 6.644531 0.296875 5.476562 -0.0195312 4.4375 -0.65625 C 3.394531 -1.300781 2.570312 -2.175781 1.96875 -3.28125 C 1.363281 -4.382812 1.0625 -5.628906 1.0625 -7.015625 C 1.0625 -8.390625 1.363281 -9.628906 1.96875 -10.734375 C 2.570312 -11.847656 3.390625 -12.726562 4.421875 -13.375 C 5.460938 -14.03125 6.632812 -14.359375 7.9375 -14.359375 C 9 -14.359375 9.945312 -14.132812 10.78125 -13.6875 C 11.625 -13.238281 12.300781 -12.625 12.8125 -11.84375 C 13.320312 -11.070312 13.609375 -10.171875 13.671875 -9.140625 L 13.671875 -4.90625 C 13.609375 -3.90625 13.328125 -3.007812 12.828125 -2.21875 C 12.328125 -1.425781 11.65625 -0.804688 10.8125 -0.359375 C 9.976562 0.078125 9.019531 0.296875 7.9375 0.296875 Z M 8.375 -2.21875 C 9.695312 -2.21875 10.757812 -2.664062 11.5625 -3.5625 C 12.375 -4.457031 12.78125 -5.609375 12.78125 -7.015625 C 12.78125 -7.984375 12.597656 -8.828125 12.234375 -9.546875 C 11.867188 -10.265625 11.347656 -10.828125 10.671875 -11.234375 C 10.003906 -11.640625 9.226562 -11.84375 8.34375 -11.84375 C 7.457031 -11.84375 6.671875 -11.632812 5.984375 -11.21875 C 5.304688 -10.800781 4.773438 -10.234375 4.390625 -9.515625 C 4.003906 -8.796875 3.8125 -7.972656 3.8125 -7.046875 C 3.8125 -6.097656 4.003906 -5.265625 4.390625 -4.546875 C 4.773438 -3.828125 5.3125 -3.257812 6 -2.84375 C 6.695312 -2.425781 7.488281 -2.21875 8.375 -2.21875 Z M 12.609375 0 L 12.609375 -3.78125 L 13.109375 -7.21875 L 12.609375 -10.625 L 12.609375 -14.0625 L 15.296875 -14.0625 L 15.296875 0 Z M 12.609375 0 "/></g></g></g><g fill="#6c645f" fill-opacity="1"><g transform="translate(90.096307, 293.456218)"><g><path d="M 11.890625 0 L 11.890625 -8.203125 C 11.890625 -9.265625 11.554688 -10.140625 10.890625 -10.828125 C 10.222656 -11.515625 9.351562 -11.859375 8.28125 -11.859375 C 7.570312 -11.859375 6.941406 -11.703125 6.390625 -11.390625 C 5.835938 -11.078125 5.398438 -10.644531 5.078125 -10.09375 C 4.765625 -9.539062 4.609375 -8.910156 4.609375 -8.203125 L 3.515625 -8.8125 C 3.515625 -9.882812 3.75 -10.832031 4.21875 -11.65625 C 4.695312 -12.488281 5.359375 -13.144531 6.203125 -13.625 C 7.054688 -14.113281 8.015625 -14.359375 9.078125 -14.359375 C 10.148438 -14.359375 11.09375 -14.085938 11.90625 -13.546875 C 12.726562 -13.015625 13.375 -12.320312 13.84375 -11.46875 C 14.320312 -10.613281 14.5625 -9.703125 14.5625 -8.734375 L 14.5625 0 Z M 1.953125 0 L 1.953125 -14.0625 L 4.609375 -14.0625 L 4.609375 0 Z M 1.953125 0 "/></g></g></g><g fill="#6c645f" fill-opacity="1"><g transform="translate(106.315023, 293.456218)"><g/></g></g><g fill="#6c645f" fill-opacity="1"><g transform="translate(112.471023, 293.456218)"><g><path d="M 2.421875 0 L 2.421875 -20.53125 L 5.203125 -20.53125 L 5.203125 0 Z M 15.6875 0 L 15.6875 -20.53125 L 18.46875 -20.53125 L 18.46875 0 Z M 4.328125 -9.359375 L 4.328125 -11.890625 L 16.359375 -11.890625 L 16.359375 -9.359375 Z M 4.328125 -9.359375 "/></g></g></g><g fill="#6c645f" fill-opacity="1"><g transform="translate(133.365927, 293.456218)"><g><path d="M 8.140625 0.296875 C 6.523438 0.296875 5.144531 0 4 -0.59375 C 2.851562 -1.1875 1.835938 -2.046875 0.953125 -3.171875 L 2.84375 -5.0625 C 3.488281 -4.15625 4.234375 -3.46875 5.078125 -3 C 5.929688 -2.539062 6.984375 -2.3125 8.234375 -2.3125 C 9.453125 -2.3125 10.429688 -2.578125 11.171875 -3.109375 C 11.910156 -3.640625 12.28125 -4.367188 12.28125 -5.296875 C 12.28125 -6.066406 12.101562 -6.6875 11.75 -7.15625 C 11.394531 -7.632812 10.914062 -8.023438 10.3125 -8.328125 C 9.707031 -8.640625 9.050781 -8.914062 8.34375 -9.15625 C 7.632812 -9.40625 6.925781 -9.671875 6.21875 -9.953125 C 5.507812 -10.242188 4.859375 -10.597656 4.265625 -11.015625 C 3.671875 -11.441406 3.191406 -12 2.828125 -12.6875 C 2.460938 -13.382812 2.28125 -14.253906 2.28125 -15.296875 C 2.28125 -16.460938 2.5625 -17.453125 3.125 -18.265625 C 3.6875 -19.085938 4.453125 -19.71875 5.421875 -20.15625 C 6.398438 -20.601562 7.503906 -20.828125 8.734375 -20.828125 C 10.078125 -20.828125 11.28125 -20.566406 12.34375 -20.046875 C 13.40625 -19.523438 14.269531 -18.84375 14.9375 -18 L 13.046875 -16.09375 C 12.441406 -16.8125 11.785156 -17.347656 11.078125 -17.703125 C 10.378906 -18.054688 9.578125 -18.234375 8.671875 -18.234375 C 7.566406 -18.234375 6.6875 -17.988281 6.03125 -17.5 C 5.382812 -17.019531 5.0625 -16.347656 5.0625 -15.484375 C 5.0625 -14.785156 5.242188 -14.222656 5.609375 -13.796875 C 5.972656 -13.378906 6.453125 -13.019531 7.046875 -12.71875 C 7.640625 -12.425781 8.296875 -12.15625 9.015625 -11.90625 C 9.734375 -11.664062 10.445312 -11.394531 11.15625 -11.09375 C 11.863281 -10.800781 12.515625 -10.425781 13.109375 -9.96875 C 13.703125 -9.519531 14.179688 -8.929688 14.546875 -8.203125 C 14.910156 -7.484375 15.09375 -6.582031 15.09375 -5.5 C 15.09375 -3.6875 14.460938 -2.265625 13.203125 -1.234375 C 11.953125 -0.210938 10.265625 0.296875 8.140625 0.296875 Z M 8.140625 0.296875 "/></g></g></g><g fill="#6c645f" fill-opacity="1"><g transform="translate(149.791815, 293.456218)"><g><path d="M 11.75 0.296875 C 10.269531 0.296875 8.894531 0.0234375 7.625 -0.515625 C 6.363281 -1.054688 5.265625 -1.8125 4.328125 -2.78125 C 3.398438 -3.75 2.675781 -4.875 2.15625 -6.15625 C 1.644531 -7.4375 1.390625 -8.804688 1.390625 -10.265625 C 1.390625 -11.742188 1.644531 -13.125 2.15625 -14.40625 C 2.675781 -15.6875 3.398438 -16.804688 4.328125 -17.765625 C 5.265625 -18.722656 6.359375 -19.472656 7.609375 -20.015625 C 8.867188 -20.554688 10.238281 -20.828125 11.71875 -20.828125 C 13.332031 -20.828125 14.75 -20.550781 15.96875 -20 C 17.195312 -19.445312 18.285156 -18.695312 19.234375 -17.75 L 17.3125 -15.828125 C 16.65625 -16.554688 15.859375 -17.128906 14.921875 -17.546875 C 13.992188 -17.960938 12.925781 -18.171875 11.71875 -18.171875 C 10.632812 -18.171875 9.640625 -17.976562 8.734375 -17.59375 C 7.828125 -17.207031 7.035156 -16.660156 6.359375 -15.953125 C 5.691406 -15.242188 5.175781 -14.40625 4.8125 -13.4375 C 4.445312 -12.46875 4.265625 -11.410156 4.265625 -10.265625 C 4.265625 -9.117188 4.445312 -8.0625 4.8125 -7.09375 C 5.175781 -6.132812 5.691406 -5.296875 6.359375 -4.578125 C 7.035156 -3.867188 7.828125 -3.320312 8.734375 -2.9375 C 9.640625 -2.5625 10.632812 -2.375 11.71875 -2.375 C 13 -2.375 14.113281 -2.582031 15.0625 -3 C 16.007812 -3.425781 16.804688 -4.003906 17.453125 -4.734375 L 19.390625 -2.84375 C 18.441406 -1.851562 17.328125 -1.082031 16.046875 -0.53125 C 14.773438 0.0195312 13.34375 0.296875 11.75 0.296875 Z M 11.75 0.296875 "/></g></g></g><g fill="#6c645f" fill-opacity="1"><g transform="translate(170.154, 293.456218)"><g><path d="M 2.421875 0 L 2.421875 -20.53125 L 5.203125 -20.53125 L 5.203125 0 Z M 2.421875 0 "/></g></g></g><g fill="#6c645f" fill-opacity="1"><g transform="translate(177.789812, 293.456218)"><g/></g></g><g fill="#6c645f" fill-opacity="1"><g transform="translate(183.945812, 293.456218)"><g><path d="M 9.359375 0.296875 C 8.285156 0.296875 7.316406 0.078125 6.453125 -0.359375 C 5.597656 -0.804688 4.914062 -1.425781 4.40625 -2.21875 C 3.894531 -3.007812 3.609375 -3.90625 3.546875 -4.90625 L 3.546875 -9.140625 C 3.609375 -10.171875 3.898438 -11.070312 4.421875 -11.84375 C 4.941406 -12.625 5.628906 -13.238281 6.484375 -13.6875 C 7.347656 -14.132812 8.304688 -14.359375 9.359375 -14.359375 C 10.640625 -14.359375 11.796875 -14.03125 12.828125 -13.375 C 13.859375 -12.726562 14.671875 -11.847656 15.265625 -10.734375 C 15.859375 -9.628906 16.15625 -8.390625 16.15625 -7.015625 C 16.15625 -5.628906 15.859375 -4.382812 15.265625 -3.28125 C 14.671875 -2.175781 13.859375 -1.300781 12.828125 -0.65625 C 11.796875 -0.0195312 10.640625 0.296875 9.359375 0.296875 Z M 8.90625 -2.21875 C 9.789062 -2.21875 10.566406 -2.425781 11.234375 -2.84375 C 11.910156 -3.257812 12.445312 -3.828125 12.84375 -4.546875 C 13.238281 -5.265625 13.4375 -6.097656 13.4375 -7.046875 C 13.4375 -7.972656 13.238281 -8.800781 12.84375 -9.53125 C 12.445312 -10.257812 11.910156 -10.828125 11.234375 -11.234375 C 10.566406 -11.640625 9.800781 -11.84375 8.9375 -11.84375 C 8.050781 -11.84375 7.269531 -11.640625 6.59375 -11.234375 C 5.925781 -10.828125 5.40625 -10.257812 5.03125 -9.53125 C 4.65625 -8.800781 4.46875 -7.960938 4.46875 -7.015625 C 4.46875 -6.085938 4.648438 -5.265625 5.015625 -4.546875 C 5.378906 -3.828125 5.898438 -3.257812 6.578125 -2.84375 C 7.265625 -2.425781 8.039062 -2.21875 8.90625 -2.21875 Z M 1.953125 5.890625 L 1.953125 -14.0625 L 4.609375 -14.0625 L 4.609375 -10.359375 L 4.109375 -6.953125 L 4.609375 -3.515625 L 4.609375 5.890625 Z M 1.953125 5.890625 "/></g></g></g><g fill="#6c645f" fill-opacity="1"><g transform="translate(201.17078, 293.456218)"><g><path d="M 1.953125 0 L 1.953125 -21.125 L 4.609375 -21.125 L 4.609375 0 Z M 1.953125 0 "/></g></g></g><g fill="#6c645f" fill-opacity="1"><g transform="translate(207.741124, 293.456218)"><g><path d="M 7.9375 0.296875 C 6.644531 0.296875 5.476562 -0.0195312 4.4375 -0.65625 C 3.394531 -1.300781 2.570312 -2.175781 1.96875 -3.28125 C 1.363281 -4.382812 1.0625 -5.628906 1.0625 -7.015625 C 1.0625 -8.390625 1.363281 -9.628906 1.96875 -10.734375 C 2.570312 -11.847656 3.390625 -12.726562 4.421875 -13.375 C 5.460938 -14.03125 6.632812 -14.359375 7.9375 -14.359375 C 9 -14.359375 9.945312 -14.132812 10.78125 -13.6875 C 11.625 -13.238281 12.300781 -12.625 12.8125 -11.84375 C 13.320312 -11.070312 13.609375 -10.171875 13.671875 -9.140625 L 13.671875 -4.90625 C 13.609375 -3.90625 13.328125 -3.007812 12.828125 -2.21875 C 12.328125 -1.425781 11.65625 -0.804688 10.8125 -0.359375 C 9.976562 0.078125 9.019531 0.296875 7.9375 0.296875 Z M 8.375 -2.21875 C 9.695312 -2.21875 10.757812 -2.664062 11.5625 -3.5625 C 12.375 -4.457031 12.78125 -5.609375 12.78125 -7.015625 C 12.78125 -7.984375 12.597656 -8.828125 12.234375 -9.546875 C 11.867188 -10.265625 11.347656 -10.828125 10.671875 -11.234375 C 10.003906 -11.640625 9.226562 -11.84375 8.34375 -11.84375 C 7.457031 -11.84375 6.671875 -11.632812 5.984375 -11.21875 C 5.304688 -10.800781 4.773438 -10.234375 4.390625 -9.515625 C 4.003906 -8.796875 3.8125 -7.972656 3.8125 -7.046875 C 3.8125 -6.097656 4.003906 -5.265625 4.390625 -4.546875 C 4.773438 -3.828125 5.3125 -3.257812 6 -2.84375 C 6.695312 -2.425781 7.488281 -2.21875 8.375 -2.21875 Z M 12.609375 0 L 12.609375 -3.78125 L 13.109375 -7.21875 L 12.609375 -10.625 L 12.609375 -14.0625 L 15.296875 -14.0625 L 15.296875 0 Z M 12.609375 0 "/></g></g></g><g fill="#6c645f" fill-opacity="1"><g transform="translate(224.966092, 293.456218)"><g><path d="M 4.109375 0 L 4.109375 -19.953125 L 6.78125 -19.953125 L 6.78125 0 Z M 0.65625 -11.625 L 0.65625 -14.0625 L 10.234375 -14.0625 L 10.234375 -11.625 Z M 0.65625 -11.625 "/></g></g></g><g fill="#6c645f" fill-opacity="1"><g transform="translate(235.857496, 293.456218)"><g><path d="M 3.96875 0 L 3.96875 -16.15625 C 3.96875 -17.207031 4.191406 -18.117188 4.640625 -18.890625 C 5.097656 -19.671875 5.722656 -20.285156 6.515625 -20.734375 C 7.316406 -21.191406 8.253906 -21.421875 9.328125 -21.421875 C 10.128906 -21.421875 10.828125 -21.28125 11.421875 -21 C 12.015625 -20.726562 12.554688 -20.328125 13.046875 -19.796875 L 11.3125 -18.078125 C 11.050781 -18.359375 10.757812 -18.570312 10.4375 -18.71875 C 10.125 -18.863281 9.742188 -18.9375 9.296875 -18.9375 C 8.441406 -18.9375 7.78125 -18.6875 7.3125 -18.1875 C 6.851562 -17.695312 6.625 -17.019531 6.625 -16.15625 L 6.625 0 Z M 0.5 -11.625 L 0.5 -14.0625 L 11.09375 -14.0625 L 11.09375 -11.625 Z M 0.5 -11.625 "/></g></g></g><g fill="#6c645f" fill-opacity="1"><g transform="translate(247.666384, 293.456218)"><g><path d="M 8.375 0.296875 C 6.988281 0.296875 5.742188 -0.0234375 4.640625 -0.671875 C 3.535156 -1.328125 2.65625 -2.210938 2 -3.328125 C 1.351562 -4.441406 1.03125 -5.691406 1.03125 -7.078125 C 1.03125 -8.429688 1.351562 -9.65625 2 -10.75 C 2.65625 -11.851562 3.535156 -12.726562 4.640625 -13.375 C 5.742188 -14.03125 6.988281 -14.359375 8.375 -14.359375 C 9.738281 -14.359375 10.976562 -14.035156 12.09375 -13.390625 C 13.207031 -12.742188 14.085938 -11.867188 14.734375 -10.765625 C 15.390625 -9.660156 15.71875 -8.429688 15.71875 -7.078125 C 15.71875 -5.691406 15.390625 -4.441406 14.734375 -3.328125 C 14.085938 -2.210938 13.207031 -1.328125 12.09375 -0.671875 C 10.976562 -0.0234375 9.738281 0.296875 8.375 0.296875 Z M 8.375 -2.28125 C 9.257812 -2.28125 10.046875 -2.484375 10.734375 -2.890625 C 11.429688 -3.304688 11.976562 -3.875 12.375 -4.59375 C 12.769531 -5.320312 12.96875 -6.148438 12.96875 -7.078125 C 12.96875 -7.984375 12.765625 -8.789062 12.359375 -9.5 C 11.953125 -10.207031 11.40625 -10.765625 10.71875 -11.171875 C 10.039062 -11.578125 9.257812 -11.78125 8.375 -11.78125 C 7.488281 -11.78125 6.695312 -11.578125 6 -11.171875 C 5.3125 -10.765625 4.769531 -10.207031 4.375 -9.5 C 3.976562 -8.789062 3.78125 -7.984375 3.78125 -7.078125 C 3.78125 -6.148438 3.976562 -5.320312 4.375 -4.59375 C 4.769531 -3.875 5.3125 -3.304688 6 -2.890625 C 6.695312 -2.484375 7.488281 -2.28125 8.375 -2.28125 Z M 8.375 -2.28125 "/></g></g></g><g fill="#6c645f" fill-opacity="1"><g transform="translate(264.417821, 293.456218)"><g><path d="M 1.953125 0 L 1.953125 -14.0625 L 4.609375 -14.0625 L 4.609375 0 Z M 4.609375 -8.015625 L 3.609375 -8.46875 C 3.609375 -10.257812 4.019531 -11.6875 4.84375 -12.75 C 5.675781 -13.820312 6.875 -14.359375 8.4375 -14.359375 C 9.144531 -14.359375 9.785156 -14.234375 10.359375 -13.984375 C 10.929688 -13.734375 11.460938 -13.320312 11.953125 -12.75 L 10.203125 -10.953125 C 9.910156 -11.265625 9.585938 -11.488281 9.234375 -11.625 C 8.878906 -11.769531 8.460938 -11.84375 7.984375 -11.84375 C 7.003906 -11.84375 6.195312 -11.523438 5.5625 -10.890625 C 4.925781 -10.253906 4.609375 -9.296875 4.609375 -8.015625 Z M 4.609375 -8.015625 "/></g></g></g><g fill="#6c645f" fill-opacity="1"><g transform="translate(276.818617, 293.456218)"><g><path d="M 1.953125 0 L 1.953125 -14.0625 L 4.609375 -14.0625 L 4.609375 0 Z M 11.453125 0 L 11.453125 -8.5 C 11.453125 -9.539062 11.128906 -10.359375 10.484375 -10.953125 C 9.847656 -11.554688 9.046875 -11.859375 8.078125 -11.859375 C 7.429688 -11.859375 6.847656 -11.71875 6.328125 -11.4375 C 5.816406 -11.164062 5.398438 -10.785156 5.078125 -10.296875 C 4.765625 -9.804688 4.609375 -9.210938 4.609375 -8.515625 L 3.515625 -9.0625 C 3.515625 -10.125 3.742188 -11.046875 4.203125 -11.828125 C 4.671875 -12.617188 5.3125 -13.238281 6.125 -13.6875 C 6.9375 -14.132812 7.84375 -14.359375 8.84375 -14.359375 C 9.832031 -14.359375 10.722656 -14.140625 11.515625 -13.703125 C 12.316406 -13.265625 12.945312 -12.648438 13.40625 -11.859375 C 13.875 -11.078125 14.109375 -10.144531 14.109375 -9.0625 L 14.109375 0 Z M 20.953125 0 L 20.953125 -8.5 C 20.953125 -9.539062 20.628906 -10.359375 19.984375 -10.953125 C 19.347656 -11.554688 18.554688 -11.859375 17.609375 -11.859375 C 16.953125 -11.859375 16.363281 -11.71875 15.84375 -11.4375 C 15.320312 -11.164062 14.898438 -10.785156 14.578125 -10.296875 C 14.265625 -9.804688 14.109375 -9.210938 14.109375 -8.515625 L 12.609375 -9.0625 C 12.671875 -10.144531 12.960938 -11.070312 13.484375 -11.84375 C 14.003906 -12.625 14.675781 -13.238281 15.5 -13.6875 C 16.332031 -14.132812 17.242188 -14.359375 18.234375 -14.359375 C 19.253906 -14.359375 20.164062 -14.140625 20.96875 -13.703125 C 21.78125 -13.265625 22.425781 -12.648438 22.90625 -11.859375 C 23.394531 -11.078125 23.640625 -10.132812 23.640625 -9.03125 L 23.640625 0 Z M 20.953125 0 "/></g></g></g></svg>